PathFileType	4	(X/Y/Z)	Kaydara	
DataRate	CameraRate	NumFrames	NumMarkers	Units	OrigDataRate	OrigDataStartFrame	OrigNumFrames	
240.00	240.00	4	72	mm	240.00	180	359	
Frame#	Time	Hips			RightUpLeg			RightLeg			RightFoot			RightFoot_End			LeftUpLeg			LeftLeg			LeftFoot			LeftFoot_End			Spine			Spine1			Spine2			Spine3			Neck			Head			Head_End			RightShoulder			RightArm			RightForeArm			RightHand			RightHandThumb1			RightHandThumb2			RightHandThumb3			RightHandThumb3_End			RightInHandIndex			RightHandIndex1			RightHandIndex2			RightHandIndex3			RightHandIndex3_End			RightInHandMiddle			RightHandMiddle1			RightHandMiddle2			RightHandMiddle3			RightHandMiddle3_End			RightInHandRing			RightHandRing1			RightHandRing2			RightHandRing3			RightHandRing3_End			RightInHandPinky			RightHandPinky1			RightHandPinky2			RightHandPinky3			RightHandPinky3_End			LeftShoulder			LeftArm			LeftForeArm			LeftHand			LeftHandThumb1			LeftHandThumb2			LeftHandThumb3			LeftHandThumb3_End			LeftInHandIndex			LeftHandIndex1			LeftHandIndex2			LeftHandIndex3			LeftHandIndex3_End			LeftInHandMiddle			LeftHandMiddle1			LeftHandMiddle2			LeftHandMiddle3			LeftHandMiddle3_End			LeftInHandRing			LeftHandRing1			LeftHandRing2			LeftHandRing3			LeftHandRing3_End			LeftInHandPinky			LeftHandPinky1			LeftHandPinky2			LeftHandPinky3			LeftHandPinky3_End			
		X1	Y1	Z1	X2	Y2	Z2	X3	Y3	Z3	X4	Y4	Z4	X5	Y5	Z5	X6	Y6	Z6	X7	Y7	Z7	X8	Y8	Z8	X9	Y9	Z9	X10	Y10	Z10	X11	Y11	Z11	X12	Y12	Z12	X13	Y13	Z13	X14	Y14	Z14	X15	Y15	Z15	X16	Y16	Z16	X17	Y17	Z17	X18	Y18	Z18	X19	Y19	Z19	X20	Y20	Z20	X21	Y21	Z21	X22	Y22	Z22	X23	Y23	Z23	X24	Y24	Z24	X25	Y25	Z25	X26	Y26	Z26	X27	Y27	Z27	X28	Y28	Z28	X29	Y29	Z29	X30	Y30	Z30	X31	Y31	Z31	X32	Y32	Z32	X33	Y33	Z33	X34	Y34	Z34	X35	Y35	Z35	X36	Y36	Z36	X37	Y37	Z37	X38	Y38	Z38	X39	Y39	Z39	X40	Y40	Z40	X41	Y41	Z41	X42	Y42	Z42	X43	Y43	Z43	X44	Y44	Z44	X45	Y45	Z45	X46	Y46	Z46	X47	Y47	Z47	X48	Y48	Z48	X49	Y49	Z49	X50	Y50	Z50	X51	Y51	Z51	X52	Y52	Z52	X53	Y53	Z53	X54	Y54	Z54	X55	Y55	Z55	X56	Y56	Z56	X57	Y57	Z57	X58	Y58	Z58	X59	Y59	Z59	X60	Y60	Z60	X61	Y61	Z61	X62	Y62	Z62	X63	Y63	Z63	X64	Y64	Z64	X65	Y65	Z65	X66	Y66	Z66	X67	Y67	Z67	X68	Y68	Z68	X69	Y69	Z69	X70	Y70	Z70	X71	Y71	Z71	X72	Y72	Z72	

180	0.746	1198.941	914.58397	126.699	1251.7507204292576	894.5096739636322	52.6122049755446	1155.949126126367	498.6663996851656	-45.42376868365482	1141.3932559345212	107.2823554196013	-121.67255481292266	989.9822984436901	30.57810199024491	-33.75610247263199	1160.1702695981348	908.4063425182835	212.26207643725036	1068.50770148832	506.338991581012	285.3323539046943	992.9580192609235	81.76467549403066	372.03266370792295	871.6547789173982	-0.7552694950511667	249.5005265974173	1133.6031974589669	1032.5518154440354	78.82132985706014	1072.5221075673192	1088.9353328590848	28.555656330555557	1006.0715512900778	1140.679663443482	-27.505172956629504	938.8857147145109	1178.9472657800884	-86.32150076471993	865.9229727313182	1220.2624324304418	-147.500610052809	797.8508290951911	1258.3382513480158	-200.64489347952417	659.6726104672389	1336.6512296545113	-212.1217169311348	908.6139404050621	1203.9051638774506	-150.77551098940395	956.8387529716312	1173.9045567803905	-254.62248991810787	1007.1039977088442	940.2092336190306	-240.50502251910123	992.8641726304735	819.2247391396661	-392.6713957015262	997.4579128838471	833.3324603247536	-410.6714159999879	985.6581983404585	838.4640501261842	-429.69952649463124	977.3820707085135	838.6080322270578	-443.18672835822326	970.4323231517541	835.7940746483093	-454.63235188052363	999.4119354888633	822.2784427234459	-413.47727656865294	1001.6497012696041	814.4582176090598	-444.81519310267356	993.8947199238321	809.3043710123209	-464.97664838328893	983.8362093448336	809.6590446041397	-473.9831846928671	971.978103192434	812.35313488079	-479.0582642562501	998.7314889327955	813.2362140232851	-412.95023755691574	1000.5487351595253	800.7175665867944	-443.23169464546277	991.9778382122759	793.9263237672271	-465.0585961844793	979.7904509212823	793.7940451725735	-475.8415096116591	966.7901615926207	796.4695502697896	-481.35414487674376	998.2882671740812	807.020538637533	-411.80268940618095	999.8089503396217	790.3269598507756	-438.01643794151016	992.2235397286308	783.2345294594912	-456.8157828034675	980.4067638255842	782.4839337683406	-467.09722717302327	968.1542686567968	784.7043626886448	-472.22383937221616	996.9672295875299	800.2951169789543	-409.37919398402164	997.8657965967789	780.744885546691	-432.0205331081817	991.6049557934546	773.3082760661991	-446.6087185113372	982.8954225448821	771.9107487164797	-453.88280511192136	971.989725937055	773.3884793782372	-458.2945208670907	871.6926601956839	1209.4265476128576	-102.45121119190901	826.6326629199841	1170.161003951603	-0.5102798668604371	931.8514709675127	999.7396820308351	-129.16499895489636	989.4829655666107	871.375929392308	-300.3351404934669	1008.4504168551545	880.690012978708	-314.1084188588319	1035.8792195143972	870.4899470818286	-323.11988197362126	1054.37591188076	860.3141483984393	-330.1467013984774	1069.2784779652613	849.2026039492036	-336.6473164266913	1007.2848035641721	871.5976041376114	-319.07470737201436	1035.4451711029249	855.9185654171139	-346.12772243826123	1058.9843750038056	839.3078966447574	-359.5609141860509	1074.090124079382	829.5719702370548	-362.24090100754756	1086.9111384280934	821.9121303258174	-360.63357381099536	1004.8472732737926	863.5157885869872	-319.91999471112405	1030.9944643575623	843.8530855389587	-346.76545796975364	1056.2723801081956	824.7049025247674	-361.4407861664085	1074.3010999775202	812.468131338069	-364.6822524148044	1088.2344146616629	803.848312808482	-362.92751296237566	1002.368172812169	858.2407529930125	-319.8919021783033	1023.5369460157391	836.1413696560135	-344.1167378718574	1045.1114265001922	818.4371031361125	-356.8822070840175	1062.258409816452	806.0949312272824	-359.99524606371335	1075.2440255902852	797.7348014101832	-358.3389014981502	998.9973813354657	852.3421167232465	-318.56329066437934	1016.2154938324327	828.5474822065496	-340.19010248485046	1032.6852069787026	812.8837309737784	-350.2661547540518	1044.8022482621716	803.1620742002295	-352.4661591285141	1056.0809116906537	795.3424284524614	-350.9582331395234
181	0.75	1198.941	914.58397	126.699	1251.6921368875196	894.4516312250375	52.597778211967174	1155.8868682383863	498.6225186127289	-45.48980843987617	1141.412233373992	107.24043705288453	-121.75213152023942	990.0075241788718	30.529593781378612	-33.830620513916834	1160.2219562402443	908.4626977557195	212.2803723345624	1068.5745212842446	506.38372724265287	285.3052667484253	992.9867079351154	81.7985337560572	371.9055407817987	871.6862173931946	-0.7252326320975121	249.37334657579265	1133.63659697749	1032.562134643379	78.80492314397009	1072.5690962523213	1088.9438933858753	28.521450771405547	1006.1314587713792	1140.687889322455	-27.554770237927173	938.9554448409493	1178.9612029633602	-86.37910603514705	866.0028817634824	1220.2816499130117	-147.56730446987547	797.9415179763015	1258.3643709897615	-200.7208741388475	659.7899332512045	1336.7048680976604	-212.27337737337646	908.645627162589	1203.8446359572674	-150.83182460287443	956.6093296358338	1173.4847263576642	-254.49189217099368	1006.3473567316516	940.244022070779	-239.47179874481245	991.6517825794385	819.3346621594944	-390.43948372650215	996.2131459314352	833.4366214663471	-408.28340111347	984.498948228481	838.5446329850246	-427.14419561213384	976.2821495144592	838.6694345930613	-440.51442755194324	969.3816647398983	835.8371258016892	-451.8621384026493	998.1506417558664	822.3729212870649	-411.071415120034	1000.368082964015	814.5156753884693	-442.14985890188416	992.667107066041	809.3321688413944	-462.1407381607327	982.681331618609	809.671389016037	-471.0672234893822	970.9098407033958	812.3546961267327	-476.0935685654605	997.4735311626637	813.3242893207436	-410.5526272992504	999.2727350648773	800.766075226039	-440.5854638378152	990.7613589775896	793.9417364782137	-462.22818053293616	978.6620116093961	793.7904545373289	-472.91543298671195	965.7566505130064	796.4539921145556	-478.3751979084893	997.0324912685655	807.1050456238294	-409.4173760031895	998.5368612469409	790.3729552065981	-435.4185300300267	991.0039660766948	783.2510028668414	-454.059708011675	979.2724539816875	782.4817161369261	-464.2501483205692	967.109365951492	784.6907230354419	-469.3276552196221	995.7200470718873	800.3764812077288	-407.0167891992605	996.6066098109844	780.7890137931694	-429.47666394833465	990.3888922463517	773.3278698488672	-443.9428427922475	981.7420710956931	771.9162802157988	-451.1527869909961	970.9158769052128	773.3836366528238	-455.5222927541086	871.8159942803305	1209.523878277853	-102.52345642576282	826.899444409208	1170.7253867702145	-0.564900030368081	931.590467840062	1000.0487442086626	-128.28453854478934	988.4671002599888	871.327774327436	-298.55859248399514	1007.2532672460007	880.6190018753174	-312.2565650201182	1034.4772472965667	870.4077647674721	-321.27041814766113	1052.8366235449748	860.2240470752349	-328.2934910154156	1067.629274509675	849.1057772947319	-334.78635510364506	1006.0911321118663	871.5223394168482	-317.1852611608263	1033.9951289064445	855.808558558164	-344.09454793151684	1057.3505092493706	839.1825939276256	-357.48798211268814	1072.3545435420958	829.4448502875824	-360.19190765258145	1085.0998537650037	821.7887043466098	-358.6372047088139	1003.6767630826754	863.4417704495544	-318.02370849759313	1029.5864316818609	843.7458553159624	-344.72524256603776	1054.667623594005	824.5812853970389	-359.3568380337449	1072.5754908185402	812.3424581335131	-362.6270104908389	1086.426891288155	803.7267449209381	-360.92977010391354	1001.2206040885591	858.1684129752474	-317.9937579576685	1022.1965299306842	836.0404311263094	-342.08603361593777	1043.6038944469522	818.3222178627751	-354.8132502848955	1060.6366217337684	805.9782605291307	-357.95390516712285	1073.5462975775722	797.62207782541	-356.3515806430117	997.8833776182216	852.2734901629115	-316.67250531109124	1014.9453471352937	828.4545647436585	-338.1799593136357	1031.288850569927	812.7803183741564	-348.22574312568383	1043.3262274127667	803.057672641632	-350.4460732439483	1054.5397427493817	795.2417127933359	-348.98610890773983
182	0.754	1198.941	914.58397	126.699	1251.6308232438228	894.3940183466925	52.58122354506139	1155.8253461219103	498.5771030214864	-45.553289288367615	1141.432353929352	107.19589478279097	-121.82328954129117	990.0353948811346	30.48186195250199	-33.89119449627219	1160.2769293912202	908.5186735761058	212.3001990847016	1068.6483444235305	506.427295603845	285.2800810185465	993.0255369721905	81.83115776719605	371.7822896587187	871.7266076808576	-0.6958373746286904	249.25082300383275	1133.6676544294328	1032.5722022166046	78.79128708481406	1072.6123243165855	1088.9524454198393	28.49207632960809	1006.1859486067505	1140.6964160277603	-27.59726046134496	939.0180747877047	1178.9757226448592	-86.42750661150687	866.0740449850033	1220.3021366921657	-147.62233664187994	798.0221690820943	1258.3927890363584	-200.78274723388606	659.8983060519889	1336.7629422245373	-212.40871824938938	908.6681255640852	1203.7845987438388	-150.87789075450988	956.3639984266221	1173.0645324652282	-254.3535508371397	1005.5627367355905	940.2774822119361	-238.4315441776149	990.3917980202809	819.4511126547847	-388.19343379697494	994.9168081241659	833.5501899681523	-405.8749717558363	983.2852279975351	838.6377166255663	-424.5629435486677	975.1259036463717	838.7458922580472	-437.8129193919015	968.2732773895311	835.8977106978688	-449.0604583381096	996.8378780801211	822.478659447093	-408.64658446365206	999.0302184688497	814.5923681892064	-439.4602298447942	991.3805899223588	809.3838354135266	-459.27675770714893	981.4665039558396	809.7090145979568	-468.12077022852424	969.7811645665697	812.3817422474382	-473.0963444948073	996.1647432231932	813.4243874227996	-408.1377512637658	997.9416108013206	800.834794741023	-437.9176875082571	989.4869566559387	793.982481411876	-459.3723480036623	977.4744218088975	793.8139588271596	-469.96116222656985	964.6634824886838	796.4657623535878	-475.3658720813186	995.7264453684285	807.2019232309774	-407.0161310167833	997.2111259271525	790.4390058542882	-432.80203323872513	989.728420802086	783.2920507087944	-451.28193881889075	978.0810425473858	782.5058011378222	-461.3788139134735	966.0069346867099	784.7036079984985	-466.4052227499467	994.4234525307822	800.4702801359405	-404.64015086471886	995.2953950451839	780.8527136246614	-426.91715620918797	989.1191352901812	773.3707135377607	-441.25923529176026	980.5342954912312	771.9463353146162	-448.4033834873501	969.7872679384964	773.4035497011923	-452.729028973706	871.9321810215918	1209.6228203674618	-102.58424947933968	827.1607423412538	1171.2987793976447	-0.6037133583649795	931.3173501872626	1000.3647471719928	-127.38622794391637	987.4322439488258	871.2884085991315	-296.7632375992588	1006.0363398035497	880.5563685681743	-310.3860955670556	1033.0541223044286	870.3336139029792	-319.40332933160875	1051.2751486277225	860.1417520981107	-326.42327353296554	1065.956935019488	849.0165997400929	-332.9088477974091	1004.8773173045747	871.455465799624	-315.2768875285101	1032.522769533817	855.7064593857588	-342.04244862598927	1055.692735285778	839.0649266421973	-355.39668075325443	1070.5942820969515	829.3252311801081	-358.1252255335216	1083.2633916399136	821.6726815018591	-356.62395458987055	1002.4859311826617	863.3762292076785	-316.1083330793409	1028.1558557701126	843.6466830602145	-342.66588591377956	1053.0385971699611	824.465404376032	-357.2543167089031	1070.8246744988853	812.2243716558503	-360.5540065107576	1084.5935889444659	803.6126731899908	-358.915130790604	1000.0526468269564	858.104612811598	-316.0764254514649	1020.8336966292295	835.9477075139155	-340.0359603757471	1042.0724054432883	818.2153069038729	-352.7253992080725	1058.9899535086574	805.8694032145125	-355.8944514927564	1071.8231613459407	797.5170764766528	-354.34696737228353	996.7489766162778	852.2134869910423	-314.76244369878367	1013.6529300368569	828.370038698036	-336.15030387910764	1029.8689942613314	812.6851153675836	-346.16617919411414	1041.8260356196688	802.9613945053993	-348.4073846673921	1052.9739307345653	795.1490450047801	-346.99610152095454
183	0.758	1198.941	914.58397	126.699	1251.5745834312938	894.3305776977099	52.5700048059486	1155.7616931361024	498.52571869618794	-45.60351824000785	1141.4594705476115	107.14566988224922	-121.8849213104343	990.0668260415638	30.427974519756656	-33.94857590872062	1160.3246864322437	908.5802877681672	212.3169913037021	1068.680902883404	506.48984194793405	285.28115704122024	992.9905469580277	81.89121898676099	371.6981214950256	871.7024921355585	-0.641739678038251	249.15993715616128	1133.7080299078932	1032.583396630041	78.7671303166497	1072.669542210276	1088.9622471129092	28.4464415258193	1006.2593303373033	1140.7063113543675	-27.661774358772306	939.1037341665511	1178.9914740318036	-86.50271396598941	866.1727853464946	1220.3245972133354	-147.7090170436561	798.134544422636	1258.4246358985943	-200.8804748624984	660.0399186414134	1336.827037218686	-212.58092698217655	908.7180037760407	1203.725849349588	-150.9523871261478	956.1496096074914	1172.6456939973555	-254.239404453553	1004.8228372632425	940.3236013044465	-237.41347833595475	989.2045449565977	819.5611871416221	-385.95628975779897	993.6857635525532	833.6619109717284	-403.46744063024386	982.1327251774397	838.7315710001636	-421.9769670976355	974.0287972090226	838.8253997963974	-435.10345876562496	967.2229496590663	835.9636426461816	-446.2487256192464	995.5921994613373	822.5850947440886	-406.2242446030054	997.7545304815287	814.6803874948309	-436.7664685250445	990.1539569307715	809.4518060054127	-456.40481637224457	980.3105280217098	809.7635374110811	-465.16434262407046	968.7107559233174	812.4244541632962	-470.0877085098113	994.9253245094502	813.5259836720094	-405.7275177570438	996.6762722647483	800.9157990092821	-435.24926462617816	988.276160945667	794.0410271497519	-456.5119765872161	976.3493605261018	793.8559894723181	-467.0000457527022	963.6322823193854	796.494729812644	-472.3482334608657	994.4915031906364	807.3006236931564	-404.6212332601823	995.9547559261808	790.5169012917497	-430.18856786118636	988.520675032847	783.3497877399942	-448.50412478076345	976.956563394969	782.5473097924981	-458.505399933793	964.9709778644678	784.7327048107413	-463.47940002134874	993.200131782587	800.5657192960371	-402.27200192305685	994.0572033244323	780.9272476859782	-424.36443643050137	987.9216628058298	773.4283156665296	-438.58047026225375	979.3984234679515	771.991716753261	-445.657579280427	968.730307154226	773.4377059300241	-449.93835181718845	872.0730377649121	1209.7239195281866	-102.67671785331981	827.450107273347	1171.878140656437	-0.6714514066528467	931.0750571143274	1000.6828056727677	-126.50411228688395	986.4342989849985	871.2462181069619	-294.97703599977893	1004.8555065949109	880.4906837922176	-308.52347952117424	1031.6661945755002	870.2562871924204	-317.54176479402736	1049.7484715452374	860.0560920887892	-324.55685653980953	1064.319270070443	848.9237916166505	-331.03360272984634	1003.7004146016909	871.3850926915112	-313.37589094045535	1031.0878817136609	855.5996303308234	-339.994429014323	1054.0724151162613	838.9419438787236	-353.30694555748033	1068.8709972916324	829.2002799768344	-356.05877022705306	1081.4631928237347	821.5515458923669	-354.60996754011535	1001.3326082327852	863.3069344328053	-314.20013665751674	1026.7636561758036	843.5424232201968	-340.6103864171689	1051.4479873624512	824.3437901962589	-355.1528945410217	1069.1117317597366	812.1005149242828	-358.4804827989386	1082.7974100044873	803.493051232446	-356.8989237113766	998.9226084901102	858.0369150910643	-314.16621656718246	1019.5099102612094	835.8497532324626	-337.99000134891287	1040.5800980955282	818.1025582977344	-350.63924836955806	1057.3819869681636	805.7546762815819	-353.8351193511851	1070.1380415024637	797.4064170444562	-352.3414835763348	995.6528936020297	852.1494976877232	-312.859545139828	1012.4001512151692	828.2802149250286	-334.12505978160027	1028.4889808690855	812.584114615455	-344.10909286503113	1040.3653849597208	802.8592564276579	-346.3700243555346	1051.4470915527454	795.0506940797145	-345.0065334819931
